# xmcd
#
# Track frame offsets:
# 150
# 8803
# 11637
# 34459
# 54096
# 72534
# 86938
# 96460
# 118937
# 139892
# 160567
# 188842
# 208927
# 228930
# 251037
#
# Disc length: 3632 seconds
#
#
# Revision: 0
# Processed by: cddbd v1.5.1PL2 Copyright (c) Steve Scherf et al.
# Submitted via: FreeRIP 2.945 
#
DISCID=d70e2e0f
DTITLE=Glashaus - Drei
DYEAR=1900
DGENRE=
TTITLE0=Drei
TTITLE1=Ich Komm' Zu Dir
TTITLE2=Haltet Die Welt An
TTITLE3=In Mir
TTITLE4=Mos Lied
TTITLE5=Du
TTITLE6=Sag, Das Das Nicht Wahr Ist
TTITLE7=Das Letzte Mal
TTITLE8=Mit Aller Kraft
TTITLE9=Solange Du Da Bist
TTITLE10=Bis Zum Mond Und Zurück
TTITLE11=Is' Nur Kino
TTITLE12=Glashausgroove/Neues Leben
TTITLE13=Wenn Sie Weint
TTITLE14=Ich Liebe
EXTD=
EXTT0=
EXTT1=
EXTT2=
EXTT3=
EXTT4=
EXTT5=
EXTT6=
EXTT7=
EXTT8=
EXTT9=
EXTT10=
EXTT11=
EXTT12=
EXTT13=
EXTT14=
PLAYORDER=
